<svg width="1920" height="1080" viewBox="0 0 1920 1080" fill="none" xmlns="http://www.w3.org/2000/svg">
<rect width="1920" height="1080" fill="#DFE1FF"/>
<mask id="mask0_1_54" style="mask-type:alpha" maskUnits="userSpaceOnUse" x="0" y="0" width="1920" height="1080">
<rect width="1920" height="1080" fill="#DFE1FF"/>
</mask>
<g mask="url(#mask0_1_54)">
<path d="M158 487C79.5556 512.218 0 609 0 609V1080H1920V187C1920 187 1809.4 90.7527 1723 114C1640.27 136.259 1649.46 234.435 1574 275C1436.24 349.06 1326.41 170.663 1177.5 218.5C1072.3 252.296 1014.67 379.333 948 384C881.333 388.667 820.159 385.005 741 403C624.057 429.585 551.667 488 460.5 528C369.333 568 271.493 450.514 158 487Z" fill="#B9CFFF"/>
<path d="M295.5 575.5C179 596.5 61.3249 642.867 0 925.5V1080H1920V463C1920 463 1884.42 387 1834 362.5C1746.05 319.766 1684.73 400.483 1587 403.5C1419.54 408.67 1299 233.5 1166.5 318.5C1034 403.5 1141.5 824 934.5 824C727.5 824 412 554.5 295.5 575.5Z" fill="#86ABFB"/>
<path d="M236.5 935C129.521 954.517 0 1047 0 1047V1080H1920V661C1920 661 1863.39 581.979 1800 579C1706.26 574.594 1709.85 714.989 1618.5 736.5C1520.01 759.693 1428 570.333 1370.5 661.5C1313 752.667 1310.24 893.218 1191 955.5C1064.22 1021.73 945.667 938.333 826.5 919.5C707.333 900.667 689.723 972.624 597.5 983C456.172 998.901 376.411 909.475 236.5 935Z" fill="#7A82F2"/>
</g>
</svg>
